<?xml version="1.0" standalone="no"?>
<!DOCTYPE svg PUBLIC "-//W3C//DTD SVG 20010904//EN"
 "http://www.w3.org/TR/2001/REC-SVG-20010904/DTD/svg10.dtd">
<svg version="1.0" xmlns="http://www.w3.org/2000/svg"
 width="6251.000000pt" height="2084.000000pt" viewBox="0 0 6251.000000 2084.000000"
 preserveAspectRatio="xMidYMid meet">

<g transform="translate(0.000000,2084.000000) scale(0.100000,-0.100000)"
fill="#000000" stroke="none">
<path d="M22736 15740 l-649 -5 489 -277 c333 -188 489 -282 488 -292 -2 -15
-1616 -3048 -1637 -3073 -7 -10 -246 -13 -1134 -13 -1064 0 -1125 1 -1118 17
6 18 1366 2429 1393 2471 l14 22 -1103 0 -1104 0 -2148 -3802 c-1181 -2090
-2146 -3803 -2144 -3805 2 -1 787 -2 1744 -1 l1739 3 -482 280 -483 279 27 51
c15 27 407 722 871 1543 l843 1492 1154 0 1154 0 -29 -52 c-16 -29 -332 -620
-701 -1313 -370 -693 -674 -1263 -677 -1267 -2 -5 492 -8 1099 -8 l1103 0
2067 3873 c1176 2203 2062 3873 2055 3874 -32 5 -2258 7 -2831 3z"/>
<path d="M26142 14703 c-16 -30 -2048 -3888 -2808 -5331 -398 -756 -724 -1375
-724 -1378 0 -2 917 -4 2039 -4 l2038 0 347 655 c190 360 346 657 346 660 0 3
-574 5 -1275 5 -1013 0 -1275 3 -1275 13 0 6 164 323 364 702 l365 690 1091 5
1091 5 312 605 312 605 -1077 3 c-593 1 -1078 5 -1078 9 0 4 169 330 376 725
l377 718 1249 2 1249 3 285 540 c157 297 314 595 350 663 l65 122 -2005 0
c-1900 0 -2006 -1 -2014 -17z"/>
<path d="M29465 11438 c-952 -1806 -1749 -3320 -1773 -3365 l-43 -83 2036 2
2037 3 358 685 359 685 -1271 3 c-1082 2 -1269 4 -1265 16 3 8 635 1211 1405
2675 l1400 2661 -757 0 -757 0 -1729 -3282z"/>
<path d="M35937 14658 c-58 -105 -3496 -6633 -3503 -6651 -6 -16 47 -17 748
-17 l755 0 1768 3358 c973 1846 1770 3360 1772 3365 2 4 -336 7 -751 7 l-755
0 -34 -62z"/>
<path d="M37858 14037 l-356 -682 977 -5 977 -5 -1393 -2640 c-766 -1452
-1402 -2657 -1413 -2677 l-21 -38 763 0 763 0 1407 2678 1407 2677 978 5 977
5 293 560 c162 308 323 615 358 683 l64 122 -2712 0 -2712 -1 -357 -682z"/>
<path d="M42649 11448 c-948 -1800 -1746 -3315 -1772 -3365 l-48 -93 2041 2
2042 3 344 650 c189 358 344 653 344 658 0 4 -574 7 -1275 7 -876 0 -1275 3
-1275 10 0 6 165 323 367 705 l367 695 1089 2 1089 3 313 605 314 605 -1080 3
c-593 1 -1079 4 -1079 7 0 8 741 1418 752 1432 8 10 276 13 1256 15 l1245 3
259 490 c143 270 300 568 349 663 l91 172 -2004 0 -2004 0 -1725 -3272z"/>
<path d="M19400 7015 l0 -145 4235 0 4235 0 0 145 0 145 -4235 0 -4235 0 0
-145z"/>
<path d="M36350 7015 l0 -145 4235 0 4235 0 0 145 0 145 -4235 0 -4235 0 0
-145z"/>
<path d="M39383 6035 c-172 -48 -294 -234 -296 -450 -2 -152 67 -244 196 -261
61 -9 143 17 194 61 23 19 44 35 48 35 4 0 5 -18 3 -40 l-4 -40 41 0 40 0 36
185 35 185 -127 0 -127 0 -7 -37 c-3 -21 -9 -48 -12 -60 -5 -22 -3 -23 66 -23
39 0 71 -4 71 -8 0 -4 -13 -29 -29 -55 -37 -57 -91 -87 -160 -87 -42 0 -56 5
-85 30 -45 40 -60 87 -52 161 21 183 112 299 235 299 47 0 57 -4 87 -34 19
-19 34 -44 34 -55 0 -20 4 -22 63 -19 l62 3 -4 40 c-3 42 -23 88 -50 119 -47
54 -166 77 -258 51z"/>
<path d="M19355 6018 c-2 -7 -33 -163 -68 -345 l-63 -333 232 0 c257 0 237 -6
249 74 l7 46 -171 0 c-94 0 -171 3 -171 8 0 4 7 44 16 90 l17 82 152 0 153 0
7 43 c3 23 9 50 11 60 5 16 -7 17 -145 17 -106 0 -151 3 -151 11 0 7 5 40 12
75 l11 64 168 0 167 0 7 46 c3 26 9 53 12 60 4 12 -33 14 -221 14 -172 0 -228
-3 -231 -12z"/>
<path d="M24281 5978 c-23 -114 -121 -626 -121 -632 0 -4 26 -6 57 -4 l56 3
46 237 c25 130 48 239 51 242 3 3 41 -105 85 -239 l78 -245 63 0 63 0 10 53
c23 114 121 625 121 631 0 4 -26 6 -57 4 l-57 -3 -45 -237 c-25 -131 -48 -238
-51 -238 -3 0 -39 107 -81 238 l-76 237 -66 3 -65 3 -11 -53z"/>
<path d="M29275 6018 c-2 -7 -33 -163 -68 -345 l-63 -333 232 0 c257 0 237 -6
249 74 l7 46 -171 0 c-94 0 -171 3 -171 8 0 4 7 44 16 90 l17 82 152 0 153 0
7 43 c3 23 9 50 11 60 5 16 -7 17 -145 17 -106 0 -151 3 -151 11 0 7 5 40 12
75 l11 64 168 0 167 0 7 46 c3 26 9 53 12 60 4 12 -33 14 -221 14 -172 0 -228
-3 -231 -12z"/>
<path d="M34172 5803 c-24 -125 -54 -281 -67 -346 l-22 -118 61 3 61 3 25 133
24 132 97 0 c124 0 134 -8 125 -92 -3 -32 -9 -85 -12 -118 l-7 -60 71 0 71 0
-6 36 c-3 20 0 73 7 119 14 91 10 125 -20 153 -20 19 -20 19 19 45 74 49 109
168 73 250 -33 75 -55 81 -272 85 l-185 3 -43 -228z m368 87 c23 -23 25 -58 6
-104 -23 -56 -47 -66 -163 -66 -57 0 -103 3 -103 6 0 3 7 46 16 95 l17 89 103
0 c91 0 107 -3 124 -20z"/>
<path d="M44195 5987 c7 -24 37 -119 65 -212 l53 -170 -17 -100 c-10 -55 -20
-115 -23 -132 l-6 -33 62 0 c33 0 61 1 61 3 0 2 11 60 24 130 l25 127 146 215
147 216 -73 -3 -73 -3 -89 -148 c-58 -96 -93 -144 -97 -135 -4 7 -22 75 -39
151 l-33 137 -73 0 -73 0 13 -43z"/>
</g>
</svg>
